<svg width="33" height="33" viewBox="0 0 33 33" fill="none" xmlns="http://www.w3.org/2000/svg">
<g clip-path="url(#clip0_315_2315)">
<path d="M31.9957 15.1998L23.9847 7.18868C23.9814 7.18548 23.978 7.18281 23.9747 7.17977C23.9646 7.17014 23.9545 7.16059 23.9437 7.15167C23.9367 7.14596 23.9293 7.14095 23.9221 7.13556C23.9146 7.13 23.9073 7.1242 23.8995 7.11896C23.8915 7.11364 23.8832 7.10895 23.875 7.10409C23.8675 7.09956 23.8601 7.09485 23.8523 7.09064C23.8443 7.08642 23.836 7.08274 23.8278 7.0789C23.8194 7.07483 23.8111 7.07067 23.8024 7.06708C23.7947 7.06386 23.7869 7.06137 23.7791 7.05855C23.7696 7.0551 23.7602 7.05151 23.7504 7.04854C23.743 7.04626 23.7354 7.04463 23.7279 7.04274C23.7177 7.04009 23.7076 7.03727 23.6972 7.03522C23.689 7.03359 23.6806 7.03272 23.6724 7.03147C23.6625 7.02998 23.6528 7.02818 23.6429 7.02724C23.6293 7.02582 23.6158 7.02552 23.6023 7.02512C23.5975 7.02504 23.5928 7.02441 23.5879 7.02441H8.84363C8.83723 7.02441 8.83095 7.0252 8.82462 7.02536C8.81273 7.02575 8.80075 7.02598 8.78893 7.02717C8.77813 7.02827 8.76765 7.03014 8.75707 7.03179C8.74957 7.03296 8.74212 7.03375 8.73469 7.03522C8.72357 7.03743 8.71278 7.0404 8.70189 7.0432C8.69508 7.04493 8.68818 7.0464 8.68146 7.04843C8.67097 7.05165 8.6608 7.05547 8.65063 7.05924C8.64359 7.06184 8.63655 7.06402 8.62958 7.06692C8.62004 7.0709 8.61081 7.07544 8.60149 7.07999C8.59422 7.08344 8.58694 7.08664 8.57973 7.09039C8.57072 7.09524 8.56212 7.10065 8.55344 7.10596C8.54647 7.11017 8.53936 7.1141 8.53264 7.11864C8.52301 7.12505 8.51392 7.13209 8.50477 7.13906C8.49929 7.14321 8.49366 7.14696 8.48834 7.15135C8.47387 7.16324 8.46 7.17569 8.44679 7.18891L0.435733 15.1998C0.432373 15.2031 0.429458 15.2069 0.426187 15.2103C0.4168 15.2202 0.407467 15.2301 0.398791 15.2406C0.392604 15.2481 0.387218 15.256 0.381493 15.2637C0.37632 15.2707 0.370916 15.2775 0.36608 15.2847C0.360284 15.2934 0.3552 15.3024 0.349956 15.3113C0.345956 15.3181 0.341582 15.3248 0.337813 15.3318C0.33312 15.3407 0.329049 15.3499 0.324747 15.3589C0.321227 15.3665 0.317475 15.3739 0.314258 15.3816C0.313707 15.3828 0.313013 15.3841 0.312462 15.3853C0.309493 15.3929 0.307218 15.4006 0.30448 15.4083C0.301511 15.4166 0.298293 15.4248 0.295715 15.4334C0.292978 15.4424 0.290933 15.4516 0.288675 15.4608C0.28656 15.4694 0.284142 15.4778 0.282347 15.4866C0.280231 15.4973 0.278987 15.5081 0.277422 15.5188C0.27648 15.5262 0.274987 15.5334 0.274293 15.5409C0.272409 15.5594 0.271484 15.5779 0.271484 15.5964C0.271484 15.615 0.272409 15.6335 0.274293 15.652C0.275004 15.6595 0.276498 15.6667 0.277493 15.6742C0.278987 15.6849 0.280249 15.6957 0.282347 15.7063C0.284142 15.7151 0.28656 15.7235 0.288675 15.7322C0.290951 15.7414 0.292995 15.7505 0.295715 15.7596C0.298293 15.7681 0.301493 15.7763 0.30448 15.7847C0.307698 15.7936 0.310578 15.8026 0.314258 15.8114C0.317475 15.819 0.321227 15.8265 0.324747 15.834C0.329049 15.8431 0.33312 15.8522 0.337813 15.8611C0.341564 15.8682 0.345956 15.8748 0.349956 15.8816C0.3552 15.8905 0.360284 15.8995 0.36608 15.9082C0.370916 15.9154 0.376338 15.9222 0.381493 15.9292C0.3872 15.9369 0.392604 15.9448 0.398791 15.9523C0.407467 15.9628 0.4168 15.9727 0.426187 15.9826C0.429458 15.986 0.432373 15.9898 0.435733 15.9931L15.8191 31.3765C15.9287 31.486 16.0723 31.5408 16.2158 31.5408C16.3593 31.5408 16.5029 31.486 16.6125 31.3765L31.9957 15.9931C32.2148 15.774 32.2148 15.4189 31.9957 15.1998ZM9.07607 8.14635H13.2445L8.5472 15.0355H2.18668L9.07607 8.14635ZM17.829 8.14635L22.5265 15.0355H9.90507L14.6024 8.14635H17.829ZM23.3555 8.14635L30.2447 15.0355H23.8844L19.1869 8.14635H23.3555ZM22.6826 16.1574L16.2158 29.165L9.74901 16.1574H22.6826ZM8.49602 16.1574L14.7339 28.7045L2.18676 16.1574H8.49602ZM23.9356 16.1574H30.2447L17.6977 28.7045L23.9356 16.1574Z" fill="#1E1671"/>
<path d="M16.2157 5.3795C16.5256 5.3795 16.7767 5.12837 16.7767 4.81854V1.66643C16.7767 1.3566 16.5256 1.10547 16.2157 1.10547C15.9059 1.10547 15.6548 1.3566 15.6548 1.66643V4.81855C15.6548 5.12837 15.9059 5.3795 16.2157 5.3795Z" fill="#1E1671"/>
<path d="M20.518 5.09161C20.6065 5.14288 20.7031 5.16722 20.7986 5.16722C20.9922 5.16722 21.1805 5.06688 21.2845 4.88727L22.8643 2.15955C23.0195 1.89152 22.928 1.54828 22.6599 1.39299C22.3918 1.23774 22.0486 1.32922 21.8934 1.59735L20.3137 4.32506C20.1584 4.59312 20.2499 4.93635 20.518 5.09161Z" fill="#1E1671"/>
<path d="M25.8479 5.77746C25.9914 5.77746 26.135 5.72266 26.2446 5.61319L28.4734 3.38437C28.6924 3.16524 28.6924 2.81011 28.4734 2.59098C28.2542 2.37202 27.8991 2.37202 27.68 2.59098L25.4511 4.8198C25.2321 5.03893 25.2321 5.39406 25.4511 5.61319C25.5607 5.72268 25.7043 5.77746 25.8479 5.77746Z" fill="#1E1671"/>
<path d="M11.1468 4.88724C11.2508 5.06685 11.4392 5.16718 11.6328 5.16718C11.7282 5.16718 11.8249 5.14285 11.9134 5.09158C12.1815 4.93632 12.273 4.59307 12.1177 4.32503L10.538 1.59732C10.3828 1.32919 10.0394 1.23778 9.77142 1.39296C9.50329 1.54823 9.41181 1.89149 9.56708 2.15952L11.1468 4.88724Z" fill="#1E1671"/>
<path d="M6.18704 5.61319C6.2966 5.72266 6.44021 5.77746 6.58373 5.77746C6.72725 5.77746 6.87088 5.72266 6.98043 5.61319C7.19948 5.39406 7.19948 5.03893 6.98043 4.8198L4.75161 2.59098C4.53248 2.37202 4.17735 2.37202 3.95824 2.59098C3.73918 2.81011 3.73918 3.16524 3.95824 3.38437L6.18704 5.61319Z" fill="#1E1671"/>
</g>
<defs>
<clipPath id="clip0_315_2315">
<rect width="32" height="32" fill="white" transform="translate(0.21582 0.323242)"/>
</clipPath>
</defs>
</svg>
