<svg width="39" height="38" viewBox="0 0 39 38" fill="none" xmlns="http://www.w3.org/2000/svg">
<path d="M38.7991 17.2373L29.0015 7.43967C28.9975 7.43576 28.9933 7.43249 28.9893 7.42878C28.977 7.41699 28.9646 7.40532 28.9514 7.3944C28.9428 7.38742 28.9338 7.38129 28.925 7.3747C28.9158 7.3679 28.9069 7.36081 28.8973 7.3544C28.8876 7.34789 28.8774 7.34215 28.8674 7.33622C28.8582 7.33067 28.8491 7.32491 28.8396 7.31976C28.8298 7.31461 28.8197 7.31011 28.8097 7.30541C28.7993 7.30043 28.7892 7.29534 28.7786 7.29095C28.7692 7.28702 28.7596 7.28397 28.75 7.28051C28.7385 7.2763 28.727 7.2719 28.715 7.26827C28.7059 7.26549 28.6966 7.26349 28.6874 7.26119C28.675 7.25795 28.6626 7.25449 28.6499 7.25199C28.6399 7.24999 28.6296 7.24892 28.6195 7.2474C28.6075 7.24557 28.5956 7.24338 28.5835 7.24223C28.5669 7.24049 28.5503 7.24012 28.5339 7.23964C28.528 7.23953 28.5222 7.23877 28.5163 7.23877H10.4838C10.476 7.23877 10.4683 7.23973 10.4606 7.23992C10.446 7.2404 10.4314 7.24068 10.4169 7.24214C10.4037 7.24349 10.3909 7.24577 10.378 7.24779C10.3688 7.24923 10.3597 7.25018 10.3506 7.25199C10.337 7.25469 10.3238 7.25832 10.3105 7.26175C10.3021 7.26386 10.2937 7.26566 10.2855 7.26814C10.2727 7.27208 10.2602 7.27675 10.2478 7.28136C10.2392 7.28454 10.2306 7.28721 10.222 7.29076C10.2104 7.29563 10.1991 7.30117 10.1877 7.30674C10.1788 7.31095 10.1699 7.31487 10.1611 7.31946C10.1501 7.32539 10.1395 7.332 10.1289 7.3385C10.1204 7.34366 10.1117 7.34846 10.1035 7.354C10.0917 7.36185 10.0806 7.37046 10.0694 7.37899C10.0627 7.38405 10.0558 7.38864 10.0493 7.39401C10.0316 7.40856 10.0146 7.42378 9.99849 7.43995L0.200878 17.2373C0.196769 17.2414 0.193203 17.246 0.189203 17.2502C0.177723 17.2623 0.166308 17.2744 0.155697 17.2873C0.148131 17.2965 0.141543 17.3061 0.134542 17.3155C0.128215 17.3241 0.121605 17.3324 0.115691 17.3412C0.108603 17.3518 0.102385 17.3628 0.095971 17.3737C0.091079 17.382 0.0857304 17.3902 0.081121 17.3988C0.075381 17.4097 0.0704019 17.4209 0.0651403 17.432C0.0608353 17.4412 0.0562476 17.4503 0.0523123 17.4596L0.0501163 17.4642C0.0464853 17.4735 0.0437023 17.483 0.0403539 17.4924C0.0367229 17.5025 0.0327876 17.5126 0.0296349 17.523C0.0262866 17.5341 0.0237862 17.5453 0.0210249 17.5565C0.0184376 17.567 0.0154806 17.5774 0.0132846 17.5881C0.0106973 17.6012 0.0091753 17.6144 0.00726197 17.6275C0.00610962 17.6365 0.00428326 17.6454 0.0034353 17.6545C0.00113061 17.6771 0 17.6998 0 17.7225C0 17.7451 0.00113061 17.7678 0.0034353 17.7904C0.004305 17.7996 0.00613136 17.8084 0.00734894 17.8175C0.0091753 17.8306 0.010719 17.8438 0.0132846 17.8569C0.0154806 17.8676 0.0184376 17.8779 0.0210249 17.8885C0.023808 17.8998 0.0263083 17.9108 0.0296349 17.922C0.0327876 17.9324 0.0367012 17.9424 0.0403539 17.9527C0.0442893 17.9636 0.0478116 17.9746 0.0523123 17.9853C0.0562476 17.9947 0.0608353 18.0038 0.0651403 18.013C0.0704019 18.0242 0.075381 18.0352 0.081121 18.0462C0.0857086 18.0548 0.091079 18.0629 0.095971 18.0712C0.102385 18.0821 0.108603 18.0931 0.115691 18.1038C0.121605 18.1126 0.128237 18.1208 0.134542 18.1294C0.141521 18.1388 0.148131 18.1485 0.155697 18.1577C0.166308 18.1706 0.177723 18.1826 0.189203 18.1947C0.193203 18.1989 0.196769 18.2035 0.200878 18.2076L19.0149 37.0217C19.1489 37.1556 19.3246 37.2225 19.5001 37.2225C19.6756 37.2225 19.8512 37.1556 19.9852 37.0217L38.7991 18.2076C39.067 17.9396 39.067 17.5053 38.7991 17.2373ZM10.7681 8.61091H15.8662L10.1213 17.0364H2.34231L10.7681 8.61091ZM21.4731 8.61091L27.2182 17.0364H11.782L17.5269 8.61091H21.4731ZM28.232 8.61091L36.6575 17.0364H28.8788L23.1338 8.61091H28.232ZM27.409 18.4085L19.5001 34.317L11.5911 18.4085H27.409ZM10.0587 18.4085L17.6877 33.7538L2.3424 18.4085H10.0587ZM28.9415 18.4085H36.6575L21.3125 33.7538L28.9415 18.4085Z" fill="white"/>
<path d="M19.5005 5.22718C19.8794 5.22718 20.1866 4.92005 20.1866 4.54112V0.68606C20.1866 0.307133 19.8794 0 19.5005 0C19.1216 0 18.8145 0.307133 18.8145 0.68606V4.54114C18.8145 4.92005 19.1216 5.22718 19.5005 5.22718Z" fill="white"/>
<path d="M24.7623 4.8752C24.8706 4.9379 24.9888 4.96767 25.1054 4.96767C25.3422 4.96767 25.5726 4.84495 25.6998 4.62529L27.6318 1.28926C27.8217 0.961451 27.7098 0.54167 27.3819 0.35175C27.054 0.161873 26.6343 0.27376 26.4445 0.601679L24.5124 3.93771C24.3225 4.26554 24.4344 4.68532 24.7623 4.8752Z" fill="white"/>
<path d="M31.2798 5.71415C31.4554 5.71415 31.631 5.64714 31.765 5.51325L34.4909 2.78738C34.7588 2.51939 34.7588 2.08506 34.4909 1.81706C34.2229 1.54926 33.7885 1.54926 33.5205 1.81706L30.7947 4.54293C30.5268 4.81093 30.5268 5.24525 30.7947 5.51325C30.9287 5.64716 31.1043 5.71415 31.2798 5.71415Z" fill="white"/>
<path d="M13.3009 4.62574C13.4281 4.8454 13.6585 4.96812 13.8953 4.96812C14.0119 4.96812 14.1302 4.93835 14.2384 4.87564C14.5663 4.68577 14.6782 4.26597 14.4883 3.93816L12.5563 0.602129C12.3665 0.27421 11.9465 0.16241 11.6188 0.3522C11.2908 0.542098 11.179 0.961901 11.3689 1.28971L13.3009 4.62574Z" fill="white"/>
<path d="M7.2344 5.51325C7.3684 5.64714 7.54403 5.71415 7.71956 5.71415C7.89508 5.71415 8.07074 5.64714 8.20472 5.51325C8.47263 5.24525 8.47263 4.81093 8.20472 4.54293L5.47885 1.81706C5.21085 1.54926 4.77653 1.54926 4.50855 1.81706C4.24064 2.08506 4.24064 2.51939 4.50855 2.78738L7.2344 5.51325Z" fill="white"/>
</svg>
