<svg width="37" height="37" viewBox="0 0 37 37" fill="none" xmlns="http://www.w3.org/2000/svg">
<g clip-path="url(#clip0_312_2238)">
<path d="M23.1421 28.9629H19.3526C19.0386 28.9629 18.7842 29.2174 18.7842 29.5313C18.7842 29.8452 19.0387 30.0997 19.3526 30.0997H23.1421C23.456 30.0997 23.7105 29.8452 23.7105 29.5313C23.7105 29.2174 23.456 28.9629 23.1421 28.9629Z" fill="#1E1671"/>
<path d="M23.1421 25.1738H19.3526C19.0386 25.1738 18.7842 25.4284 18.7842 25.7422C18.7842 26.0562 19.0387 26.3106 19.3526 26.3106H23.1421C23.456 26.3106 23.7105 26.0561 23.7105 25.7422C23.7105 25.4283 23.456 25.1738 23.1421 25.1738Z" fill="#1E1671"/>
<path d="M23.1421 31.2363H19.3526C19.0386 31.2363 18.7842 31.4909 18.7842 31.8047C18.7842 32.1187 19.0387 32.3731 19.3526 32.3731H23.1421C23.456 32.3731 23.7105 32.1186 23.7105 31.8047C23.7105 31.4909 23.456 31.2363 23.1421 31.2363Z" fill="#1E1671"/>
<path d="M13.2896 24.416H7.22637C6.91242 24.416 6.65796 24.6705 6.65796 24.9844C6.65796 25.2984 6.91249 25.5528 7.22637 25.5528H13.2896C13.6035 25.5528 13.858 25.2983 13.858 24.9844C13.858 24.6705 13.6034 24.416 13.2896 24.416Z" fill="#1E1671"/>
<path d="M11.7736 26.6895H8.74199C8.42804 26.6895 8.17358 26.944 8.17358 27.2579C8.17358 27.5718 8.42812 27.8263 8.74199 27.8263H11.7736C12.0875 27.8263 12.342 27.5717 12.342 27.2579C12.342 26.9439 12.0875 26.6895 11.7736 26.6895Z" fill="#1E1671"/>
<path d="M23.1421 5.46875H17.0789C16.765 5.46875 16.5105 5.72328 16.5105 6.03716C16.5105 6.3511 16.765 6.60556 17.0789 6.60556H23.1421C23.456 6.60556 23.7105 6.35103 23.7105 6.03716C23.7105 5.72328 23.456 5.46875 23.1421 5.46875Z" fill="#1E1671"/>
<path d="M30.9059 15.329C30.3228 15.2782 29.7421 15.475 29.3128 15.8687C29.2756 15.9028 29.2397 15.9381 29.2053 15.9747C29.1831 15.9511 29.1602 15.928 29.1367 15.9054C28.726 15.5091 28.1856 15.3016 27.614 15.3224C27.3018 15.3335 27.0059 15.417 26.7421 15.5565V2.28364C26.7421 1.15457 25.841 0.2038 24.7333 0.164495C24.163 0.144315 23.6213 0.351175 23.2106 0.747456C23.1869 0.770378 23.1638 0.793722 23.1414 0.817487C22.7611 0.414808 22.2225 0.163089 21.6263 0.163089C21.0296 0.163089 20.4908 0.415089 20.1105 0.81819C19.7302 0.415089 19.1914 0.163089 18.5947 0.163089C17.9984 0.163089 17.4599 0.414808 17.0796 0.817487C17.0572 0.793722 17.034 0.770378 17.0103 0.747456C16.5997 0.351175 16.0594 0.143823 15.4877 0.164495C14.3801 0.2038 13.4789 1.15457 13.4789 2.28364V6.9841H12.1526C10.7944 6.9841 9.68941 8.08914 9.68941 9.44729V11.3525C9.39951 11.434 9.12388 11.579 8.88538 11.7877L4.33799 15.7666C3.88567 16.1624 3.62622 16.7341 3.62622 17.3351V31.8051C3.62622 32.9544 4.56117 33.8893 5.71042 33.8893H13.4788V34.0788C13.4788 35.2281 14.4138 36.163 15.563 36.163H26.6752C28.416 36.163 29.9056 34.9198 30.217 33.207L32.5314 20.4783C32.7131 19.4791 32.8052 18.4573 32.8052 17.4415C32.8053 16.3496 31.9709 15.4216 30.9059 15.329ZM10.2579 17.9736C10.5717 17.9736 10.8261 17.7193 10.8263 17.4056C11.0563 17.5787 11.2052 17.8538 11.2052 18.163C11.2052 18.6854 10.7802 19.1104 10.2578 19.1104C9.73539 19.1104 9.31049 18.6855 9.31049 18.1631C9.31049 17.8538 9.45942 17.5787 9.68948 17.4057C9.68969 17.7193 9.94408 17.9736 10.2579 17.9736ZM5.71049 32.7525C5.18807 32.7525 4.7631 32.3275 4.7631 31.8051V17.3351C4.7631 17.0619 4.88102 16.802 5.08668 16.6221L9.63407 12.6432C9.65214 12.6275 9.67049 12.6125 9.68948 12.5983V16.1577C8.81563 16.4057 8.17368 17.2108 8.17368 18.1631C8.17368 19.3123 9.10863 20.2473 10.2579 20.2473C11.4071 20.2473 12.3421 19.3123 12.3421 18.1631C12.3421 17.2108 11.7001 16.4057 10.8263 16.1577V12.5983C10.8452 12.6125 10.8637 12.6275 10.8817 12.6433L15.4291 16.6222C15.6347 16.8021 15.7527 17.062 15.7527 17.3352V31.8052C15.7527 32.3276 15.3277 32.7526 14.8053 32.7526H5.71049V32.7525ZM31.4129 20.2749L29.0986 33.0037C28.8855 34.1756 27.8662 35.0262 26.6752 35.0262H15.5631C15.0407 35.0262 14.6157 34.6012 14.6157 34.0788V33.8893H14.8052C15.9545 33.8893 16.8894 32.9544 16.8894 31.8051V17.3351C16.8894 16.7341 16.63 16.1624 16.1777 15.7666L11.6303 11.7877C11.3917 11.5789 11.1163 11.4338 10.8263 11.3524V9.44736C10.8263 8.71604 11.4213 8.12106 12.1526 8.12106H13.4789V12.1C13.4789 12.4139 13.7334 12.6684 14.0473 12.6684C14.3613 12.6684 14.6157 12.4138 14.6157 12.1V2.28364C14.6157 1.75946 15.025 1.31846 15.528 1.3006C15.7885 1.29217 16.0343 1.38554 16.2209 1.56554C16.4076 1.74575 16.5105 1.98791 16.5105 2.24736C16.5105 2.56131 16.765 2.81577 17.0789 2.81577C17.3928 2.81577 17.6473 2.56124 17.6473 2.24736C17.6473 1.72494 18.0723 1.29997 18.5947 1.29997C19.1171 1.29997 19.5421 1.72494 19.5421 2.24736C19.5421 2.56131 19.7966 2.81577 20.1105 2.81577C20.4244 2.81577 20.6789 2.56124 20.6789 2.24736C20.6789 1.72494 21.1039 1.29997 21.6263 1.29997C22.1487 1.29997 22.5737 1.72494 22.5737 2.24736C22.5737 2.56131 22.8282 2.81577 23.1421 2.81577C23.456 2.81577 23.7105 2.56124 23.7105 2.24736C23.7105 1.98791 23.8134 1.74582 24.0001 1.56554C24.1868 1.38547 24.4334 1.29203 24.693 1.3006C25.196 1.31846 25.6053 1.75953 25.6053 2.28364V33.3209C25.6053 33.6349 25.8598 33.8893 26.1737 33.8893C26.4876 33.8893 26.7421 33.6348 26.7421 33.3209V17.4415C26.7421 16.9173 27.1514 16.4764 27.6545 16.4584C27.9153 16.4493 28.1607 16.5433 28.3473 16.7234C28.5341 16.9036 28.6369 17.1457 28.6369 17.4052C28.6369 17.7191 28.8915 17.9736 29.2053 17.9736C29.5193 17.9736 29.7738 17.7191 29.7738 17.4052C29.7738 17.1365 29.8829 16.8884 30.0812 16.7066C30.2791 16.5251 30.5369 16.4384 30.8076 16.4616C31.2903 16.5036 31.6685 16.9341 31.6685 17.4415C31.6684 18.3894 31.5825 19.3426 31.4129 20.2749Z" fill="#1E1671"/>
<path d="M23.1421 9.25781H17.0789C16.765 9.25781 16.5105 9.51234 16.5105 9.82622C16.5105 10.1402 16.765 10.3946 17.0789 10.3946H23.1421C23.456 10.3946 23.7105 10.1401 23.7105 9.82622C23.7105 9.51234 23.456 9.25781 23.1421 9.25781Z" fill="#1E1671"/>
<path d="M23.1421 22.8994H19.3526C19.0386 22.8994 18.7842 23.1539 18.7842 23.4678C18.7842 23.7817 19.0387 24.0362 19.3526 24.0362H23.1421C23.456 24.0362 23.7105 23.7817 23.7105 23.4678C23.7105 23.1539 23.456 22.8994 23.1421 22.8994Z" fill="#1E1671"/>
<path d="M23.1421 11.5312H17.0789C16.765 11.5312 16.5105 11.7858 16.5105 12.0997C16.5105 12.4135 16.765 12.6681 17.0789 12.6681H23.1421C23.456 12.6681 23.7105 12.4135 23.7105 12.0997C23.7105 11.7858 23.456 11.5312 23.1421 11.5312Z" fill="#1E1671"/>
<path d="M23.1421 19.1104H19.3526C19.0386 19.1104 18.7842 19.3649 18.7842 19.6788C18.7842 19.9927 19.0387 20.2472 19.3526 20.2472H23.1421C23.456 20.2472 23.7105 19.9926 23.7105 19.6788C23.7105 19.3649 23.456 19.1104 23.1421 19.1104Z" fill="#1E1671"/>
<path d="M23.1421 16.8369H19.3526C19.0386 16.8369 18.7842 17.0914 18.7842 17.4053C18.7842 17.7193 19.0387 17.9737 19.3526 17.9737H23.1421C23.456 17.9737 23.7105 17.7192 23.7105 17.4053C23.7105 17.0914 23.456 16.8369 23.1421 16.8369Z" fill="#1E1671"/>
</g>
<defs>
<clipPath id="clip0_312_2238">
<rect width="36" height="36" fill="white" transform="translate(0.21582 0.163086)"/>
</clipPath>
</defs>
</svg>
