<svg width="35" height="35" viewBox="0 0 35 35" fill="none" xmlns="http://www.w3.org/2000/svg">
<g clip-path="url(#clip0_310_1973)">
<path d="M32.8733 10.1677C32.8713 10.1628 32.8713 10.1628 32.8733 10.1677V10.1677Z" fill="#1E1671"/>
<path d="M32.9557 10.356C32.9754 10.4012 32.9837 10.42 32.9556 10.3557C32.9011 10.2311 32.8781 10.1784 32.873 10.1669C32.8814 10.186 32.9287 10.2944 32.9554 10.3554C32.7257 9.83011 32.3613 9.6212 31.9754 9.4C27.1402 6.6292 24.0657 3.722 23.7509 1.62323C23.626 0.790758 22.8864 0.163086 22.0304 0.163086H18.1178C17.8303 0.163086 17.5973 0.396105 17.5973 0.683512C17.5973 0.970918 17.8303 1.20394 18.1178 1.20394H22.0304C22.3754 1.20394 22.6725 1.45064 22.7216 1.77769C22.9503 3.30224 24.2089 5.03246 26.3645 6.83904C26.0967 7.31949 25.8129 7.7929 25.5135 8.25867C25.2762 8.16677 25.0188 8.11583 24.7495 8.11583C23.5797 8.11583 22.6279 9.06757 22.6279 10.2374C22.6279 10.7174 22.7885 11.1606 23.0583 11.5165C22.8053 11.805 22.5456 12.0889 22.2799 12.3681C21.9643 12.1816 21.5967 12.0741 21.2043 12.0741C20.0345 12.0741 19.0827 13.0258 19.0827 14.1957C19.0827 14.5208 19.1565 14.8289 19.2877 15.1046C18.8012 15.4914 18.3011 15.8646 17.7877 16.2223C17.6088 16.1853 17.4236 16.1658 17.234 16.1658C17.0442 16.1658 16.8589 16.1854 16.68 16.2224C16.1802 15.8741 15.6935 15.5114 15.2196 15.136C15.3604 14.8524 15.4401 14.5333 15.4401 14.1957C15.4401 13.8342 15.3474 13.477 15.1721 13.1628C15.0319 12.9118 14.7151 12.822 14.4641 12.962C14.2131 13.1021 14.1232 13.4191 14.2633 13.6701C14.3523 13.8295 14.3993 14.0113 14.3993 14.1957C14.3993 14.7916 13.9145 15.2764 13.3187 15.2764C12.7228 15.2764 12.238 14.7915 12.238 14.1957C12.238 13.5998 12.7228 13.115 13.3187 13.115C13.6061 13.115 13.8391 12.8819 13.8391 12.5945C13.8391 12.3071 13.6061 12.0741 13.3187 12.0741C12.911 12.0741 12.53 12.1899 12.2063 12.39C11.9339 12.104 11.6682 11.8129 11.4092 11.5172C11.6795 11.1612 11.8402 10.7178 11.8402 10.2373C11.8402 9.0675 10.8884 8.11577 9.71864 8.11577C9.44836 8.11577 9.19011 8.1671 8.95218 8.2596C8.57413 7.67124 8.22191 7.07 7.89479 6.458C9.7379 4.7143 10.7762 3.13988 10.9806 1.77755C11.0297 1.4505 11.3267 1.20387 11.6717 1.20387H16.0361C16.3236 1.20387 16.5566 0.970852 16.5566 0.683445C16.5566 0.396039 16.3236 0.163086 16.0361 0.163086H11.6716C10.8155 0.163086 10.076 0.790824 9.95119 1.62329C9.65814 3.57703 6.93137 6.39578 2.47006 9.3567C1.96278 9.69331 1.68341 9.87872 1.4755 10.3556C1.38007 10.5745 1.33272 10.806 1.33478 11.044C1.38791 17.1045 2.98059 22.8131 5.81933 27.1186C8.81465 31.6613 12.8619 34.1631 17.2158 34.1631C21.5693 34.1631 25.6165 31.6614 28.6119 27.119C29.8015 25.315 30.7789 23.2571 31.517 21.0026C31.6065 20.7294 31.4576 20.4355 31.1844 20.3461C30.9111 20.2568 30.6173 20.4056 30.5278 20.6787C29.8185 22.8452 28.8816 24.8192 27.743 26.546C24.9466 30.7867 21.208 33.1222 17.2158 33.1222C13.2234 33.1222 9.48456 30.7865 6.68825 26.5456C3.95856 22.4056 2.42696 16.8971 2.37557 11.0349C2.3747 10.9441 2.3929 10.8556 2.42955 10.7716C2.51004 10.587 2.57472 10.5363 3.04554 10.2239C4.15419 9.48812 5.68658 8.40397 7.09884 7.17771C7.41208 7.74987 7.7473 8.31233 8.10324 8.86416C7.78794 9.23458 7.59709 9.7139 7.59709 10.2372C7.59709 11.4071 8.54882 12.3588 9.71864 12.3588C10.0315 12.3588 10.3286 12.2902 10.5963 12.168C10.8833 12.4967 11.1783 12.8199 11.4813 13.1371C11.3009 13.4489 11.1971 13.8102 11.1971 14.1956C11.1971 15.3654 12.1488 16.3171 13.3187 16.3171C13.7743 16.3171 14.1965 16.1722 14.5427 15.9268C14.8842 16.198 15.2323 16.4625 15.5869 16.7204C14.9292 17.2195 14.5036 18.009 14.5036 18.8964C14.5036 19.7815 14.9271 20.5691 15.582 21.0684C13.8909 22.666 12.8972 24.7866 12.9267 26.8552C12.9292 27.0369 12.9466 27.22 12.9638 27.4007C12.9844 27.6173 13.0036 27.8456 13.068 28.0546C13.5668 30.0098 15.2777 31.374 17.2342 31.374C19.2143 31.374 20.9332 29.9861 21.4142 27.9989C21.4717 27.767 21.4947 27.5261 21.5144 27.2885C21.5264 27.1451 21.5417 26.9992 21.5417 26.8551C21.5515 26.1717 21.4505 25.4748 21.2416 24.784C21.1584 24.5089 20.868 24.3531 20.5928 24.4365C20.3177 24.5197 20.1621 24.8102 20.2453 25.0853C20.4232 25.6736 20.5093 26.2641 20.501 26.8333C20.4919 27.1558 20.4481 27.4712 20.3942 27.788C20.0156 29.2884 18.721 30.3331 17.2342 30.3331C15.7502 30.3331 14.4504 29.2852 14.0734 27.7848C13.9961 27.476 13.9766 27.1439 13.9672 26.8265C13.9451 24.9326 14.9365 22.9753 16.5997 21.5516C16.8035 21.6004 17.0157 21.6268 17.2342 21.6268C17.4524 21.6268 17.6645 21.6004 17.8681 21.5517C18.5416 22.129 19.1169 22.8035 19.5546 23.5359C19.702 23.7826 20.0215 23.8632 20.2683 23.7157C20.515 23.5682 20.5955 23.2488 20.4481 23.0021C20.0291 22.3006 19.4982 21.6481 18.8852 21.0692C19.5407 20.57 19.9649 19.7818 19.9649 18.8962C19.9649 18.0088 19.5391 17.2192 18.8814 16.7201C19.2448 16.4559 19.6019 16.1848 19.952 15.9062C20.3033 16.1642 20.7365 16.317 21.2048 16.317C22.3745 16.317 23.3263 15.3653 23.3263 14.1955C23.3263 13.7946 23.2145 13.4194 23.0205 13.0994C23.3113 12.794 23.5951 12.4834 23.8713 12.1675C24.1392 12.2899 24.4366 12.3587 24.7499 12.3587C25.9197 12.3587 26.8714 11.407 26.8714 10.2372C26.8714 9.71297 26.6799 9.23292 26.3638 8.8623C26.6526 8.41473 26.9274 7.96004 27.1881 7.49918C28.3907 8.42376 29.8198 9.36407 31.4583 10.3031C31.8092 10.5041 31.9143 10.5711 32.0022 10.7724C32.0389 10.8564 32.0571 10.9451 32.0563 11.036C32.033 13.6793 31.7106 16.2585 31.0981 18.7019C31.0282 18.9806 31.1975 19.2633 31.4764 19.3332C31.5189 19.3439 31.5614 19.349 31.6033 19.349C31.8363 19.349 32.0484 19.1913 32.1076 18.955C32.7401 16.432 33.073 13.7707 33.0971 11.0452C33.0988 10.8069 33.0514 10.5751 32.9557 10.356ZM9.7185 11.3179C9.12257 11.3179 8.63781 10.8331 8.63781 10.2372C8.63781 9.64138 9.12264 9.15655 9.7185 9.15655C10.3144 9.15655 10.7992 9.64138 10.7992 10.2372C10.7992 10.8331 10.3144 11.3179 9.7185 11.3179ZM18.9238 18.8962C18.9238 19.828 18.1658 20.5859 17.234 20.5859C16.3023 20.5859 15.5443 19.828 15.5443 18.8962C15.5443 17.9645 16.3024 17.2065 17.234 17.2065C18.1657 17.2065 18.9238 17.9645 18.9238 18.8962ZM21.2045 15.2763C20.6085 15.2763 20.1237 14.7915 20.1237 14.1956C20.1237 13.5997 20.6085 13.1149 21.2045 13.1149C21.8004 13.1149 22.2851 13.5997 22.2851 14.1956C22.2852 14.7915 21.8003 15.2763 21.2045 15.2763ZM24.7495 11.3179C24.1536 11.3179 23.6688 10.8331 23.6688 10.2372C23.6688 9.64138 24.1536 9.15655 24.7495 9.15655C25.3454 9.15655 25.8302 9.64138 25.8302 10.2372C25.8303 10.8331 25.3454 11.3179 24.7495 11.3179Z" fill="#1E1671"/>
<path d="M17.234 24.2305C15.7284 24.2305 14.5034 25.4554 14.5034 26.9611C14.5034 28.4667 15.7283 29.6917 17.234 29.6917C18.7397 29.6917 19.9647 28.4667 19.9647 26.9611C19.9646 25.4555 18.7397 24.2305 17.234 24.2305ZM17.234 28.6508C16.3023 28.6508 15.5443 27.8928 15.5443 26.9611C15.5443 26.0293 16.3024 25.2713 17.234 25.2713C18.1658 25.2713 18.9238 26.0293 18.9238 26.9611C18.9238 27.8928 18.1657 28.6508 17.234 28.6508Z" fill="#1E1671"/>
</g>
<defs>
<clipPath id="clip0_310_1973">
<rect width="34" height="34" fill="white" transform="translate(0.21582 0.163086)"/>
</clipPath>
</defs>
</svg>
