<svg width="36" height="36" viewBox="0 0 36 36" fill="none" xmlns="http://www.w3.org/2000/svg">
<path d="M26.9659 9.41309H31.3409C32.1463 9.41309 32.7992 10.066 32.7992 10.8714V25.4548C32.7992 26.2602 32.1463 26.9131 31.3409 26.9131H15.2992M19.6742 9.41309H5.0909C4.28549 9.41309 3.63257 10.066 3.63257 10.8714V25.4548C3.63257 26.2602 4.28549 26.9131 5.0909 26.9131H9.4659M9.4659 14.5173V21.8089M26.9659 14.5173V21.8089M21.8617 18.1631C21.8617 20.1766 20.2294 21.8089 18.2159 21.8089C16.2024 21.8089 14.5701 20.1766 14.5701 18.1631C14.5701 16.1496 16.2024 14.5173 18.2159 14.5173C20.2294 14.5173 21.8617 16.1496 21.8617 18.1631Z" stroke="#1E1671" stroke-width="1.5" stroke-linecap="round" stroke-linejoin="round"/>
</svg>
