<svg width="40" height="39" viewBox="0 0 40 39" fill="none" xmlns="http://www.w3.org/2000/svg">
<path d="M29 11L28.4226 8.5685C27.7886 5.89893 27.4715 4.56414 26.4295 3.78208C25.3875 3 23.9262 3 21.0035 3H17.9965C15.0738 3 13.6125 3 12.5705 3.78208C11.5285 4.56414 11.2115 5.89893 10.5775 8.5685L10 11" stroke="#1E1671" stroke-width="1.3"/>
<path d="M29 28L28.4226 30.4315C27.7886 33.1012 27.4715 34.4359 26.4295 35.218C25.3875 36 23.9262 36 21.0035 36H17.9965C15.0738 36 13.6125 36 12.5705 35.218C11.5285 34.4359 11.2115 33.1012 10.5775 30.4315L10 28" stroke="#1E1671" stroke-width="1.3"/>
<path d="M7 15.6335C7.55748 13.4994 8.65509 11.4819 10.2928 9.80762C15.2586 4.73079 23.3099 4.73079 28.2757 9.80762C33.2414 14.8844 33.2414 23.1157 28.2757 28.1924C23.3099 33.2692 15.2586 33.2692 10.2928 28.1924C8.65509 26.518 7.55748 24.5006 7 22.3665" stroke="#1E1671" stroke-width="1.3" stroke-linecap="round"/>
<path d="M18 14V19.5386L22 23" stroke="#1E1671" stroke-width="1.3" stroke-linecap="round" stroke-linejoin="round"/>
</svg>
