<svg width="37" height="37" viewBox="0 0 37 37" fill="none" xmlns="http://www.w3.org/2000/svg">
<g clip-path="url(#clip0_337_2891)">
<path d="M34.5016 29.8205H27.6445H33.9302V28.1634C33.9302 27.5348 33.4159 27.0205 32.7873 27.0205H31.073V17.3062H32.1588C32.7873 17.3062 33.3016 16.7919 33.3016 16.1634V14.1062C33.3016 13.4777 32.7873 12.8491 32.1588 12.8491H29.1685H31.5873V12.2777L18.2159 3.02051L4.90161 12.2777V12.8491H7.6919H4.33018C3.70161 12.8491 3.18733 13.3634 3.18733 13.9919V16.0491C3.18733 16.6777 3.70161 17.3062 4.33018 17.3062H5.98733V26.9062H3.75875C3.13018 26.9062 2.6159 27.4205 2.6159 28.0491V29.7062H9.35875H2.04447C1.4159 29.7062 0.901611 30.2205 0.901611 30.8491V32.6205C0.901611 33.2491 1.4159 33.7634 2.04447 33.7634H34.5016C35.1302 33.7634 35.6445 33.2491 35.6445 32.6205V30.8491C35.6445 30.3348 35.1302 29.8205 34.5016 29.8205Z" stroke="#1E1671" stroke-linejoin="round"/>
<path d="M11.6444 17.3066H9.35864V27.0209H11.6444V17.3066Z" stroke="#1E1671" stroke-linejoin="round"/>
<path d="M16.7874 17.3066H14.5017V27.0209H16.7874V17.3066Z" stroke="#1E1671" stroke-linejoin="round"/>
<path d="M22.5015 17.3066H20.2158V27.0209H22.5015V17.3066Z" stroke="#1E1671" stroke-linejoin="round"/>
<path d="M27.6444 17.3066H25.3586V27.0209H27.6444V17.3066Z" stroke="#1E1671" stroke-linejoin="round"/>
</g>
<defs>
<clipPath id="clip0_337_2891">
<rect width="36" height="36" fill="white" transform="translate(0.21582 0.163086)"/>
</clipPath>
</defs>
</svg>
