<svg width="37" height="37" viewBox="0 0 37 37" fill="none" xmlns="http://www.w3.org/2000/svg">
<path d="M26.3759 3.26074H10.0559C9.0622 3.26351 8.10998 3.65949 7.40732 4.36215C6.70466 5.06481 6.30868 6.01703 6.30591 7.01074V29.3157C6.30868 30.3094 6.70466 31.2617 7.40732 31.9643C8.10998 32.667 9.0622 33.063 10.0559 33.0657H26.3759C27.3705 33.0657 28.3243 32.6707 29.0276 31.9674C29.7308 31.2641 30.1259 30.3103 30.1259 29.3157V7.01074C30.1259 6.51828 30.0289 6.03065 29.8405 5.57568C29.652 5.12071 29.3758 4.70731 29.0276 4.35909C28.6793 4.01087 28.2659 3.73465 27.811 3.54619C27.356 3.35774 26.8684 3.26074 26.3759 3.26074ZM28.6259 29.3157C28.6259 29.9125 28.3889 30.4848 27.9669 30.9067C27.5449 31.3287 26.9726 31.5657 26.3759 31.5657H10.0559C9.45917 31.5657 8.88688 31.3287 8.46492 30.9067C8.04296 30.4848 7.80591 29.9125 7.80591 29.3157V9.92074H28.6259V29.3157Z" fill="#1E1671"/>
<path d="M11.5393 14.4219C11.3404 14.4219 11.1496 14.3429 11.009 14.2022C10.8683 14.0616 10.7893 13.8708 10.7893 13.6719C10.7893 13.473 10.8683 13.2822 11.009 13.1415C11.1496 13.0009 11.3404 12.9219 11.5393 12.9219H24.9028C25.1017 12.9219 25.2925 13.0009 25.4331 13.1415C25.5738 13.2822 25.6528 13.473 25.6528 13.6719C25.6528 13.8708 25.5738 14.0616 25.4331 14.2022C25.2925 14.3429 25.1017 14.4219 24.9028 14.4219H11.5393Z" fill="#1E1671"/>
<path d="M11.5393 18.9219C11.3404 18.9219 11.1496 18.8429 11.009 18.7022C10.8683 18.5616 10.7893 18.3708 10.7893 18.1719C10.7893 17.973 10.8683 17.7822 11.009 17.6415C11.1496 17.5009 11.3404 17.4219 11.5393 17.4219H21.2893C21.4882 17.4219 21.679 17.5009 21.8196 17.6415C21.9603 17.7822 22.0393 17.973 22.0393 18.1719C22.0393 18.3708 21.9603 18.5616 21.8196 18.7022C21.679 18.8429 21.4882 18.9219 21.2893 18.9219H11.5393Z" fill="#1E1671"/>
<path d="M11.5647 27.7236C11.3658 27.7236 11.175 27.6446 11.0344 27.504C10.8937 27.3633 10.8147 27.1725 10.8147 26.9736C10.8147 26.7747 10.8937 26.584 11.0344 26.4433C11.175 26.3026 11.3658 26.2236 11.5647 26.2236H16.4412C16.6401 26.2236 16.8309 26.3026 16.9715 26.4433C17.1122 26.584 17.1912 26.7747 17.1912 26.9736C17.1912 27.1725 17.1122 27.3633 16.9715 27.504C16.8309 27.6446 16.6401 27.7236 16.4412 27.7236H11.5647Z" fill="#1E1671"/>
</svg>
