<svg width="33" height="33" viewBox="0 0 33 33" fill="none" xmlns="http://www.w3.org/2000/svg">
<path d="M22.2158 2.16309H13.2158V3.16309H22.2158V2.16309Z" fill="#1E1671"/>
<path d="M22.2158 29.1631H10.2158V30.1631H22.2158V29.1631Z" fill="#1E1671"/>
<path d="M6.21582 9.16309L6.21582 26.1631H7.21582L7.21582 9.16309H6.21582Z" fill="#1E1671"/>
<path d="M25.2158 6.16309V26.1631H26.2158V6.16309H25.2158Z" fill="#1E1671"/>
<path d="M13.2158 8.16309H6.21582V9.16309H13.2158V8.16309Z" fill="#1E1671"/>
<path d="M23.2158 5.16309H15.2158V6.16309H23.2158V5.16309Z" fill="#1E1671"/>
<path d="M23.2158 8.16309H15.2158V9.16309H23.2158V8.16309Z" fill="#1E1671"/>
<path d="M23.2158 11.1631H9.21582V12.1631H23.2158V11.1631Z" fill="#1E1671"/>
<path d="M23.2158 14.1631H9.21582V15.1631H23.2158V14.1631Z" fill="#1E1671"/>
<path d="M23.2158 17.1631H9.21582V18.1631H23.2158V17.1631Z" fill="#1E1671"/>
<path d="M23.2158 20.1631H9.21582V21.1631H23.2158V20.1631Z" fill="#1E1671"/>
<path d="M23.2158 23.1631H9.21582V24.1631H23.2158V23.1631Z" fill="#1E1671"/>
<path d="M23.2158 26.1631H9.21582V27.1631H23.2158V26.1631Z" fill="#1E1671"/>
<path d="M12.2118 2.15584L6.2085 8.15918L6.9156 8.86629L12.9189 2.86295L12.2118 2.15584Z" fill="#1E1671"/>
<path d="M12.2158 2.16309V9.16309H13.2158V2.16309H12.2158Z" fill="#1E1671"/>
<path d="M22.2158 2.16309V3.16309H24.2158C24.481 3.16309 24.7354 3.26844 24.9229 3.45598C25.1105 3.64352 25.2158 3.89787 25.2158 4.16309V6.16309H26.2158V4.16309C26.2158 3.63265 26.0051 3.12394 25.63 2.74887C25.255 2.3738 24.7463 2.16309 24.2158 2.16309H22.2158Z" fill="#1E1671"/>
<path d="M22.2158 30.1631V29.1631H24.2158C24.481 29.1631 24.7354 29.0577 24.9229 28.8702C25.1105 28.6827 25.2158 28.4283 25.2158 28.1631V26.1631H26.2158V28.1631C26.2158 28.6935 26.0051 29.2022 25.63 29.5773C25.255 29.9524 24.7463 30.1631 24.2158 30.1631H22.2158Z" fill="#1E1671"/>
<path d="M10.2158 30.1631V29.1631H8.21582C7.9506 29.1631 7.69625 29.0577 7.50871 28.8702C7.32118 28.6827 7.21582 28.4283 7.21582 28.1631V26.1631H6.21582V28.1631C6.21582 28.6935 6.42653 29.2022 6.80161 29.5773C7.17668 29.9524 7.68539 30.1631 8.21582 30.1631H10.2158Z" fill="#1E1671"/>
</svg>
