<svg width="32" height="32" viewBox="0 0 32 32" fill="none" xmlns="http://www.w3.org/2000/svg">
<g clip-path="url(#clip0_337_2874)">
<mask id="mask0_337_2874" style="mask-type:luminance" maskUnits="userSpaceOnUse" x="0" y="0" width="32" height="32">
<path d="M31.7158 0.663086H0.71582V31.6631H31.7158V0.663086Z" fill="white"/>
</mask>
<g mask="url(#mask0_337_2874)">
<path d="M15.2471 17.1318C15.2471 15.5266 13.946 14.2256 12.3408 14.2256M12.3408 14.2256C10.7356 14.2256 9.43457 15.5266 9.43457 17.1318C9.43457 18.7371 10.7356 20.0381 12.3408 20.0381C13.946 20.0381 15.2471 21.3391 15.2471 22.9443C15.2471 24.5496 13.946 25.8506 12.3408 25.8506M12.3408 14.2256V13.2568M12.3408 25.8506C10.7356 25.8506 9.43457 24.5496 9.43457 22.9443M12.3408 25.8506V26.8193M22.0283 30.6943H30.7471V28.7568M24.9346 25.8506H30.7471V23.9131M25.9033 21.0068H30.7471V19.0693M25.9033 16.1631H30.7471V14.2256M22.9971 11.3193H30.7471V9.38184M10.4033 6.47559H30.7471V1.63184H7.49707V6.47559M22.9971 20.0381C22.9971 14.1539 18.225 9.38184 12.3408 9.38184C6.45663 9.38184 1.68457 14.1539 1.68457 20.0381C1.68457 25.9223 6.45663 30.6943 12.3408 30.6943C18.225 30.6943 22.9971 25.9223 22.9971 20.0381Z" stroke="#1E1671" stroke-linecap="round" stroke-linejoin="round"/>
</g>
</g>
<defs>
<clipPath id="clip0_337_2874">
<rect width="31" height="31" fill="white" transform="translate(0.71582 0.663086)"/>
</clipPath>
</defs>
</svg>
