<svg width="34" height="34" viewBox="0 0 34 34" fill="none" xmlns="http://www.w3.org/2000/svg">
<path d="M27.7088 30.0952H6.7229V4.31396C6.72432 4.30505 6.72784 4.29661 6.73317 4.28934C6.7385 4.28206 6.74548 4.27617 6.75355 4.27213C6.76162 4.2681 6.77053 4.26605 6.77955 4.26615C6.78856 4.26625 6.79743 4.2685 6.8054 4.27271L8.92462 6.25786C8.93434 6.26499 8.94608 6.26883 8.95813 6.26883C8.97019 6.26883 8.98193 6.26499 8.99165 6.25786L10.6932 4.27271C10.7017 4.2651 10.7127 4.26089 10.7242 4.26089C10.7356 4.26089 10.7466 4.2651 10.7551 4.27271L12.6732 6.27849C12.6829 6.28561 12.6947 6.28945 12.7067 6.28945C12.7188 6.28945 12.7305 6.28561 12.7402 6.27849L14.4367 4.27271C14.441 4.26818 14.4462 4.26458 14.4519 4.26213C14.4577 4.25967 14.4639 4.2584 14.4702 4.2584C14.4764 4.2584 14.4826 4.25967 14.4884 4.26213C14.4941 4.26458 14.4993 4.26818 14.5037 4.27271L15.9784 6.26818C15.988 6.27762 16.001 6.28292 16.0145 6.28292C16.028 6.28292 16.0409 6.27762 16.0506 6.26818L17.7315 4.27271C17.7358 4.26818 17.741 4.26458 17.7468 4.26213C17.7525 4.25967 17.7587 4.2584 17.765 4.2584C17.7713 4.2584 17.7775 4.25967 17.7832 4.26213C17.789 4.26458 17.7942 4.26818 17.7985 4.27271L19.1856 6.25786C19.1952 6.26731 19.2082 6.2726 19.2217 6.2726C19.2351 6.2726 19.2481 6.26731 19.2577 6.25786L20.7531 4.27271C20.7627 4.26326 20.7757 4.25797 20.7892 4.25797C20.8026 4.25797 20.8156 4.26326 20.8252 4.27271L22.2948 6.25786C22.3044 6.26731 22.3174 6.2726 22.3309 6.2726C22.3444 6.2726 22.3573 6.26731 22.367 6.25786L23.7643 4.27271C23.7685 4.26633 23.7743 4.26109 23.781 4.25747C23.7878 4.25385 23.7953 4.25195 23.803 4.25195C23.8106 4.25195 23.8182 4.25385 23.8249 4.25747C23.8317 4.26109 23.8374 4.26633 23.8416 4.27271L25.0018 6.25271C25.0061 6.25723 25.0113 6.26083 25.0171 6.26329C25.0229 6.26575 25.0291 6.26702 25.0353 6.26702C25.0416 6.26702 25.0478 6.26575 25.0535 6.26329C25.0593 6.26083 25.0645 6.25723 25.0688 6.25271L27.6315 4.27271C27.6395 4.2681 27.6485 4.26571 27.6577 4.26578C27.6669 4.26586 27.6759 4.26839 27.6838 4.27313C27.6917 4.27787 27.6982 4.28463 27.7026 4.29271C27.707 4.3008 27.7092 4.30992 27.7088 4.31911V30.0952Z" stroke="#1E1671" stroke-linecap="round"/>
<path d="M10.7292 22.8555H24.4449" stroke="#1E1671" stroke-linecap="round"/>
<path d="M10.7292 26.0781H24.4449" stroke="#1E1671" stroke-linecap="round"/>
<path d="M20.2424 11.8729C20.0147 11.3429 19.6339 10.8929 19.1489 10.5806C18.6639 10.2683 18.0967 10.1078 17.5199 10.1198C15.0656 10.1198 14.9727 11.8729 14.9727 11.8729C14.9727 11.8729 14.6015 14.0385 17.6076 14.2705C20.7323 14.5129 20.2424 16.6682 20.2424 16.6682C20.2424 16.6682 19.9227 18.5451 17.6076 18.6637C15.2924 18.7823 14.5706 16.3485 14.5706 16.3485" stroke="#1E1671"/>
<path d="M17.52 8.55762V20.4634" stroke="#1E1671"/>
</svg>
