<svg width="33" height="33" viewBox="0 0 33 33" fill="none" xmlns="http://www.w3.org/2000/svg">
<path d="M9.54923 3.16309H7.2159C6.86228 3.16309 6.52314 3.30356 6.27309 3.55361C6.02304 3.80366 5.88257 4.1428 5.88257 4.49642V27.8298C5.88257 28.1834 6.02304 28.5225 6.27309 28.7726C6.52314 29.0226 6.86228 29.1631 7.2159 29.1631H25.2159C25.5695 29.1631 25.9087 29.0226 26.1587 28.7726C26.4088 28.5225 26.5492 28.1834 26.5492 27.8298V4.49642C26.5492 4.1428 26.4088 3.80366 26.1587 3.55361C25.9087 3.30356 25.5695 3.16309 25.2159 3.16309H16.2159" stroke="#1E1671" stroke-linecap="round" stroke-linejoin="round"/>
<path d="M8.21582 3.16341L9.15862 2.22061C9.40867 1.97056 9.7478 1.83008 10.1014 1.83008H15.5492C15.726 1.83008 15.8955 1.90032 16.0206 2.02534C16.1456 2.15036 16.2158 2.31993 16.2158 2.49674V19.1634L12.8825 15.8301L9.54915 19.1634V3.16341" stroke="#1E1671" stroke-linecap="round" stroke-linejoin="round"/>
<path d="M9.54907 25.4961H22.8824" stroke="#1E1671" stroke-linecap="round" stroke-linejoin="round"/>
<path d="M16.2158 6.83008H22.8825" stroke="#1E1671" stroke-linecap="round" stroke-linejoin="round"/>
<path d="M16.2158 11.4961H22.8825" stroke="#1E1671" stroke-linecap="round" stroke-linejoin="round"/>
<path d="M16.2158 16.1631H22.8825" stroke="#1E1671" stroke-linecap="round" stroke-linejoin="round"/>
<path d="M9.54907 20.8301H22.8824" stroke="#1E1671" stroke-linecap="round" stroke-linejoin="round"/>
</svg>
